<svg
        xmlns="http://www.w3.org/2000/svg"
        width="18"
        height="18"
        viewBox="0 0 18 18"
        fill="none"
>
    <path
            d="M17.64 9.20455C17.64 8.56682 17.5827 7.95273 17.4764 7.36364H9V10.8455H13.84C13.6323 11.9636 13.0009 12.9091 12.0555 13.5455V15.8182H14.96C16.6582 14.2455 17.64 11.9273 17.64 9.20455Z"
            fill="#4285F4"
    />
    <path
            d="M9 18C11.43 18 13.4673 17.2 14.96 15.8182L12.0555 13.5455C11.2455 14.0855 10.2109 14.4091 9 14.4091C6.65545 14.4091 4.67182 12.8182 3.96409 10.7091H0.957275V13.0636C2.44182 15.9818 5.48182 18 9 18Z"
            fill="#34A853"
    />
    <path
            d="M3.96409 10.7091C3.78409 10.1691 3.68182 9.59091 3.68182 9C3.68182 8.40909 3.78409 7.83091 3.96409 7.29091V4.93636H0.957272C0.347726 6.15091 0 7.54182 0 9C0 10.4582 0.347726 11.8491 0.957272 13.0636L3.96409 10.7091Z"
            fill="#FBBC05"
    />
    <path
            d="M9 3.59091C10.3218 3.59091 11.5 4.04545 12.4273 4.93636L15.0273 2.33636C13.4636 0.881818 11.4264 0 9 0C5.48182 0 2.44182 2.01818 0.957275 4.93636L3.96409 7.29091C4.67182 5.18182 6.65545 3.59091 9 3.59091Z"
            fill="#EA4335"
    />
</svg>

